<?xml version="1.0" standalone="no"?>
<!DOCTYPE svg PUBLIC "-//W3C//DTD SVG 20010904//EN"
 "http://www.w3.org/TR/2001/REC-SVG-20010904/DTD/svg10.dtd">
<svg version="1.0" xmlns="http://www.w3.org/2000/svg"
 width="296.000000pt" height="296.000000pt" viewBox="0 0 296.000000 296.000000"
 preserveAspectRatio="xMidYMid meet">
<metadata>
Created by potrace 1.14, written by Peter Selinger 2001-2017
</metadata>
<g transform="translate(0.000000,296.000000) scale(0.100000,-0.100000)"
fill="#000000" stroke="none">
<path d="M1607 2935 c-1 -2 -46 -5 -99 -9 -571 -36 -1010 -407 -1149 -971 -22
-89 -24 -101 -35 -195 -9 -78 -12 -351 -5 -365 6 -11 6 -16 14 -107 3 -31 7
-60 10 -65 5 -9 19 -70 18 -78 -1 -3 5 -21 13 -40 8 -19 13 -35 11 -35 -2 0 4
-20 15 -44 10 -24 16 -47 13 -50 -4 -3 -1 -6 5 -6 7 0 11 -3 10 -7 -3 -10 43
-104 59 -121 7 -7 13 -17 13 -21 0 -4 8 -18 18 -30 106 -135 128 -160 134
-161 4 0 25 -18 48 -40 22 -21 40 -36 40 -33 0 3 9 -2 19 -11 11 -10 18 -26
16 -37 -2 -11 0 -17 6 -14 5 4 7 11 4 16 -4 5 -4 9 -1 9 9 0 120 -72 127 -82
3 -6 10 -9 15 -9 18 1 44 -11 44 -20 0 -6 5 -7 10 -4 6 4 16 2 23 -3 7 -6 31
-16 54 -22 23 -7 41 -16 39 -19 -2 -3 6 -7 17 -7 26 -2 48 -7 62 -15 6 -3 26
-6 45 -8 19 -2 36 -6 38 -10 1 -4 17 -5 35 -3 30 5 31 4 17 -14 -13 -17 -13
-18 0 -7 20 15 250 13 250 -2 0 -5 4 -5 8 2 4 7 28 13 52 14 25 1 55 6 68 10
15 6 22 5 22 -4 0 -9 2 -9 8 0 4 7 17 14 27 16 68 12 195 59 267 98 21 11 43
17 50 13 7 -4 8 -3 4 5 -4 6 0 14 11 18 22 8 103 64 159 109 33 26 44 30 55
21 11 -10 11 -9 1 4 -10 13 -9 19 1 28 8 6 17 7 21 3 4 -4 6 -2 4 3 -1 6 7 21
20 35 12 13 22 28 22 33 0 5 7 7 15 3 8 -3 14 -2 14 2 -3 17 2 29 19 48 9 10
32 42 49 69 18 28 37 55 43 62 5 7 10 14 10 17 0 2 15 37 34 78 18 40 41 92
50 116 l16 43 -55 54 c-55 54 -169 118 -232 130 -30 6 -35 3 -65 -41 -65 -94
-185 -240 -229 -278 -94 -81 -208 -110 -319 -82 -108 27 -188 72 -265 150
-125 127 -187 295 -194 529 l-3 98 106 -3 c58 -2 106 -1 106 2 0 3 54 3 120 0
66 -3 120 -1 120 3 0 5 4 6 10 2 13 -8 226 -9 239 -1 6 4 11 4 11 -1 0 -4 19
-7 42 -6 46 2 218 2 308 1 30 0 71 1 90 3 26 2 34 0 32 -11 -2 -10 0 -11 10
-3 7 5 40 11 72 12 33 1 63 4 68 7 4 3 13 25 19 49 6 25 14 43 18 41 3 -2 6 6
7 17 0 12 9 58 19 102 42 188 14 440 -67 600 -139 276 -413 406 -882 419 -47
2 -87 2 -89 1z m67 -197 c-5 -8 -1 -8 11 2 12 10 20 11 22 4 2 -6 15 -9 30 -6
17 3 24 1 19 -6 -4 -6 2 -8 14 -5 48 13 276 -103 265 -134 -2 -7 -1 -12 3 -12
20 3 32 -2 32 -15 0 -8 4 -16 8 -18 31 -13 117 -180 128 -248 2 -14 7 -36 10
-50 9 -37 14 -241 5 -236 -4 3 -5 -10 -3 -28 2 -18 -3 -48 -11 -67 l-14 -34
-430 1 c-237 1 -436 4 -442 8 -6 4 -11 4 -11 -1 0 -4 -60 -8 -134 -8 -87 0
-132 4 -128 10 4 6 1 6 -9 0 -21 -15 -54 -12 -51 5 1 10 -4 8 -13 -5 -18 -22
-24 -23 -36 -3 -5 7 -9 8 -9 2 0 -6 -20 -10 -50 -8 l-50 2 -1 -37 c0 -20 -2
-45 -5 -56 -6 -33 -6 -266 1 -315 3 -25 7 -56 9 -70 2 -14 7 -34 12 -44 4 -11
8 -34 8 -52 1 -18 4 -30 9 -27 4 2 7 -1 7 -7 0 -6 9 -30 20 -52 11 -23 20 -50
20 -60 0 -10 4 -18 8 -18 5 0 17 -18 28 -40 10 -22 22 -40 26 -40 3 0 15 -15
27 -32 11 -18 38 -51 59 -73 22 -22 38 -44 34 -49 -3 -5 0 -6 6 -2 6 3 22 -5
35 -18 14 -14 28 -22 31 -19 3 4 6 2 6 -4 0 -5 12 -15 26 -21 14 -7 23 -16 19
-21 -3 -5 0 -13 6 -17 8 -4 9 -3 5 4 -4 7 -1 12 8 12 9 0 16 -4 16 -9 0 -8 37
-24 53 -22 4 1 7 -4 7 -11 0 -6 3 -9 6 -5 4 3 22 0 42 -8 38 -17 59 -22 145
-38 31 -6 57 -16 57 -21 0 -6 5 -4 10 4 8 13 11 12 25 -5 14 -19 15 -19 8 -1
-5 14 -3 17 7 11 15 -9 158 -10 167 -1 3 3 12 1 20 -5 9 -9 13 -8 13 0 0 6 10
11 23 11 31 0 174 47 205 68 20 13 24 14 17 3 -5 -8 19 6 52 32 33 25 63 43
67 40 3 -4 6 0 6 8 0 8 19 32 43 55 23 22 43 43 44 47 2 4 15 25 29 47 23 34
29 38 43 28 14 -12 14 -11 3 4 -12 15 -11 20 6 39 21 21 42 19 42 -6 0 -17
-60 -139 -71 -143 -5 -2 -9 -12 -9 -22 0 -11 -9 -24 -21 -30 -11 -7 -18 -14
-16 -17 6 -5 -14 -33 -60 -80 -17 -18 -29 -33 -26 -33 2 0 -17 -18 -42 -40
-26 -22 -51 -37 -57 -34 -6 4 -8 2 -5 -3 6 -10 -63 -63 -82 -63 -5 0 -14 -7
-22 -16 -7 -8 -21 -13 -31 -11 -10 3 -16 1 -13 -4 9 -13 -159 -76 -255 -95
-69 -14 -313 -13 -385 0 -307 60 -569 257 -690 520 -33 71 -89 255 -80 264 2
2 -1 16 -6 30 -6 14 -12 76 -14 136 -3 61 -5 113 -6 116 -1 3 -1 7 -1 10 0 3
3 48 6 100 3 52 7 105 10 117 2 11 8 42 11 67 4 25 11 44 15 41 4 -2 5 7 2 22
-3 14 -1 23 4 20 5 -3 10 5 10 16 2 28 9 54 25 92 7 17 12 33 11 38 -1 4 3 7
10 7 6 0 9 3 5 6 -9 10 42 106 53 99 5 -3 7 0 4 8 -3 8 2 21 10 30 9 9 16 19
16 22 0 15 86 124 98 124 6 1 12 6 12 13 0 13 75 87 130 128 18 14 39 31 46
38 7 6 17 12 23 12 6 0 11 5 11 11 0 6 9 8 23 4 15 -4 18 -3 8 3 -17 12 3 26
25 18 8 -3 13 -2 10 2 -3 5 8 16 25 26 16 9 29 15 29 11 0 -3 11 2 25 11 13 8
30 12 36 8 8 -4 9 -3 5 4 -10 16 7 15 23 0 10 -11 11 -10 6 5 -7 16 6 21 52
20 7 -1 10 4 6 9 -4 7 6 9 25 6 17 -2 29 -1 27 3 -8 12 33 17 46 5 9 -8 10 -8
5 1 -8 15 18 18 172 21 99 2 122 0 116 -10z"/>
<path d="M1734 2696 c1 -8 5 -18 8 -22 4 -3 5 1 4 10 -1 8 -5 18 -8 22 -4 3
-5 -1 -4 -10z"/>
<path d="M1810 2699 c0 -5 5 -7 10 -4 6 3 10 8 10 11 0 2 -4 4 -10 4 -5 0 -10
-5 -10 -11z"/>
<path d="M1395 2680 c3 -5 8 -10 11 -10 2 0 4 5 4 10 0 6 -5 10 -11 10 -5 0
-7 -4 -4 -10z"/>
<path d="M1405 2659 c-16 -5 -38 -7 -48 -5 -10 2 -14 0 -10 -7 4 -6 -2 -8 -15
-5 -12 4 -22 3 -22 -1 0 -4 -12 -13 -27 -20 -16 -7 -45 -24 -65 -38 -33 -22
-40 -24 -55 -12 -16 12 -17 12 -6 -1 10 -13 3 -24 -44 -65 -31 -28 -61 -49
-66 -47 -4 1 -6 -2 -3 -7 3 -4 -9 -28 -28 -52 -50 -66 -94 -159 -138 -293 -28
-85 -36 -121 -27 -126 6 -4 63 -7 125 -6 66 0 114 -3 114 -8 0 -6 5 -5 12 2 9
9 14 7 25 -6 10 -13 12 -14 8 -1 -5 12 2 15 35 15 22 -1 40 -5 40 -10 0 -6 5
-5 12 2 20 20 30 14 18 -10 -10 -21 -9 -21 9 2 11 14 21 19 21 12 0 -7 5 -10
12 -6 15 10 588 11 588 1 0 -4 9 -2 19 5 11 7 19 14 19 17 -2 21 3 41 10 38 7
-5 10 28 11 161 3 213 -93 391 -244 454 -48 20 -78 25 -155 26 -52 0 -108 -3
-125 -9z m256 -228 c52 -45 76 -104 86 -205 5 -51 3 -67 -5 -62 -7 4 -12 4
-12 -1 0 -9 -378 -9 -387 0 -8 9 64 142 75 140 5 -1 9 5 8 15 0 9 4 16 11 15
8 -2 10 4 6 14 -5 12 -2 15 10 10 9 -3 19 -1 23 5 4 7 3 8 -4 4 -28 -17 -9 15
21 35 17 13 34 26 37 30 8 9 63 38 76 39 6 0 31 -17 55 -39z"/>
<path d="M1593 2435 c0 -8 4 -12 9 -9 4 3 8 9 8 15 0 5 -4 9 -8 9 -5 0 -9 -7
-9 -15z"/>
<path d="M1615 2360 c-3 -5 -1 -10 4 -10 6 0 11 5 11 10 0 6 -2 10 -4 10 -3 0
-8 -4 -11 -10z"/>
<path d="M1693 2345 c0 -8 4 -12 9 -9 5 3 6 10 3 15 -9 13 -12 11 -12 -6z"/>
<path d="M1686 2658 c3 -5 10 -6 15 -3 13 9 11 12 -6 12 -8 0 -12 -4 -9 -9z"/>
<path d="M1236 2633 c-6 -14 -5 -15 5 -6 7 7 10 15 7 18 -3 3 -9 -2 -12 -12z"/>
<path d="M1940 2646 c0 -2 8 -10 18 -17 15 -13 16 -12 3 4 -13 16 -21 21 -21
13z"/>
<path d="M2026 2558 c3 -5 10 -6 15 -3 13 9 11 12 -6 12 -8 0 -12 -4 -9 -9z"/>
<path d="M995 2540 c-3 -5 -1 -10 4 -10 6 0 11 5 11 10 0 6 -2 10 -4 10 -3 0
-8 -4 -11 -10z"/>
<path d="M973 2495 c0 -8 4 -12 9 -9 5 3 6 10 3 15 -9 13 -12 11 -12 -6z"/>
<path d="M2059 2508 c-5 -18 -6 -38 -1 -34 7 8 12 36 6 36 -2 0 -4 -1 -5 -2z"/>
<path d="M867 2399 c7 -7 15 -10 18 -7 3 3 -2 9 -12 12 -14 6 -15 5 -6 -5z"/>
<path d="M815 2391 c-3 -5 -2 -12 3 -15 5 -3 9 1 9 9 0 17 -3 19 -12 6z"/>
<path d="M735 2300 c3 -5 8 -10 11 -10 2 0 4 5 4 10 0 6 -5 10 -11 10 -5 0 -7
-4 -4 -10z"/>
<path d="M1733 1945 c0 -8 4 -12 9 -9 5 3 6 10 3 15 -9 13 -12 11 -12 -6z"/>
<path d="M995 1931 c-3 -5 -2 -12 3 -15 5 -3 9 1 9 9 0 17 -3 19 -12 6z"/>
<path d="M1026 1918 c3 -5 10 -6 15 -3 13 9 11 12 -6 12 -8 0 -12 -4 -9 -9z"/>
<path d="M2355 1081 c-3 -5 -2 -12 3 -15 5 -3 9 1 9 9 0 17 -3 19 -12 6z"/>
<path d="M959 1013 c-13 -17 -13 -17 6 -3 11 8 22 16 24 17 2 2 0 3 -6 3 -6 0
-17 -8 -24 -17z"/>
<path d="M1055 901 c-3 -5 -2 -12 3 -15 5 -3 9 1 9 9 0 17 -3 19 -12 6z"/>
<path d="M2210 880 c0 -5 5 -10 11 -10 5 0 7 5 4 10 -3 6 -8 10 -11 10 -2 0
-4 -4 -4 -10z"/>
<path d="M1150 839 c0 -5 5 -7 10 -4 6 3 10 8 10 11 0 2 -4 4 -10 4 -5 0 -10
-5 -10 -11z"/>
<path d="M1190 781 c0 -6 4 -13 10 -16 6 -3 7 1 4 9 -7 18 -14 21 -14 7z"/>
<path d="M2079 773 c-12 -16 -12 -17 2 -6 9 7 20 9 24 5 5 -4 5 -1 1 6 -9 16
-11 15 -27 -5z"/>
<path d="M1433 725 c0 -8 4 -12 9 -9 5 3 6 10 3 15 -9 13 -12 11 -12 -6z"/>
<path d="M1887 719 c7 -7 15 -10 18 -7 3 3 -2 9 -12 12 -14 6 -15 5 -6 -5z"/>
<path d="M1314 702 c4 -3 14 -7 22 -8 9 -1 13 0 10 4 -4 3 -14 7 -22 8 -9 1
-13 0 -10 -4z"/>
<path d="M1395 680 c-3 -5 -1 -10 4 -10 6 0 11 5 11 10 0 6 -2 10 -4 10 -3 0
-8 -4 -11 -10z"/>
<path d="M1590 681 c0 -6 4 -13 10 -16 6 -3 7 1 4 9 -7 18 -14 21 -14 7z"/>
<path d="M1694 676 c1 -8 5 -18 8 -22 4 -3 5 1 4 10 -1 8 -5 18 -8 22 -4 3 -5
-1 -4 -10z"/>
<path d="M2010 686 c0 -2 7 -7 16 -10 8 -3 12 -2 9 4 -6 10 -25 14 -25 6z"/>
<path d="M1915 671 c-3 -5 -2 -12 3 -15 5 -3 9 1 9 9 0 17 -3 19 -12 6z"/>
<path d="M1870 659 c0 -5 5 -7 10 -4 6 3 10 8 10 11 0 2 -4 4 -10 4 -5 0 -10
-5 -10 -11z"/>
<path d="M1590 641 c0 -6 4 -13 10 -16 6 -3 7 1 4 9 -7 18 -14 21 -14 7z"/>
<path d="M1595 1680 c-3 -5 -1 -10 4 -10 6 0 11 5 11 10 0 6 -2 10 -4 10 -3 0
-8 -4 -11 -10z"/>
<path d="M1315 1660 c-3 -5 -1 -10 4 -10 6 0 11 5 11 10 0 6 -2 10 -4 10 -3 0
-8 -4 -11 -10z"/>
<path d="M1390 1660 c0 -5 5 -10 11 -10 5 0 7 5 4 10 -3 6 -8 10 -11 10 -2 0
-4 -4 -4 -10z"/>
<path d="M1435 1660 c-3 -5 -1 -10 4 -10 6 0 11 5 11 10 0 6 -2 10 -4 10 -3 0
-8 -4 -11 -10z"/>
<path d="M1750 1661 c0 -6 4 -13 10 -16 6 -3 7 1 4 9 -7 18 -14 21 -14 7z"/>
<path d="M2155 1659 c-3 -4 2 -6 10 -5 21 3 28 13 10 13 -9 0 -18 -4 -20 -8z"/>
<path d="M2495 1660 c3 -5 8 -10 11 -10 2 0 4 5 4 10 0 6 -5 10 -11 10 -5 0
-7 -4 -4 -10z"/>
<path d="M1833 1645 c0 -8 4 -12 9 -9 5 3 6 10 3 15 -9 13 -12 11 -12 -6z"/>
<path d="M1490 1640 c0 -5 5 -10 11 -10 5 0 7 5 4 10 -3 6 -8 10 -11 10 -2 0
-4 -4 -4 -10z"/>
<path d="M1695 1640 c-3 -5 -1 -10 4 -10 6 0 11 5 11 10 0 6 -2 10 -4 10 -3 0
-8 -4 -11 -10z"/>
<path d="M1900 1646 c0 -2 8 -10 18 -17 15 -13 16 -12 3 4 -13 16 -21 21 -21
13z"/>
<path d="M2316 1633 c-6 -14 -5 -15 5 -6 7 7 10 15 7 18 -3 3 -9 -2 -12 -12z"/>
<path d="M2413 1631 c0 -11 5 -18 9 -15 4 3 5 11 1 19 -7 21 -12 19 -10 -4z"/>
<path d="M1299 1628 c-5 -18 -6 -38 -1 -34 7 8 12 36 6 36 -2 0 -4 -1 -5 -2z"/>
<path d="M1616 1622 c-3 -5 1 -9 9 -9 8 0 12 4 9 9 -3 4 -7 8 -9 8 -2 0 -6 -4
-9 -8z"/>
<path d="M1773 1615 c0 -8 4 -12 9 -9 5 3 6 10 3 15 -9 13 -12 11 -12 -6z"/>
<path d="M1856 1618 c3 -4 11 -5 19 -1 21 7 19 12 -4 10 -11 0 -18 -5 -15 -9z"/>
<path d="M2250 1620 c0 -5 5 -10 11 -10 5 0 7 5 4 10 -3 6 -8 10 -11 10 -2 0
-4 -4 -4 -10z"/>
<path d="M1400 1600 c-8 -5 -10 -10 -5 -10 6 0 17 5 25 10 8 5 11 10 5 10 -5
0 -17 -5 -25 -10z"/>
<path d="M496 767 c3 -10 9 -15 12 -12 3 3 0 11 -7 18 -10 9 -11 8 -5 -6z"/>
<path d="M689 557 c6 -8 7 -18 3 -22 -4 -5 -1 -5 6 -1 10 6 10 11 1 22 -6 8
-14 14 -16 14 -3 0 0 -6 6 -13z"/>
<path d="M835 461 c-3 -5 -2 -12 3 -15 5 -3 9 1 9 9 0 17 -3 19 -12 6z"/>
<path d="M2096 418 c3 -4 11 -5 19 -1 21 7 19 12 -4 10 -11 0 -18 -5 -15 -9z"/>
<path d="M815 400 c3 -5 8 -10 11 -10 2 0 4 5 4 10 0 6 -5 10 -11 10 -5 0 -7
-4 -4 -10z"/>
<path d="M875 379 c-3 -4 2 -6 10 -5 21 3 28 13 10 13 -9 0 -18 -4 -20 -8z"/>
<path d="M935 379 c-3 -4 2 -6 10 -5 21 3 28 13 10 13 -9 0 -18 -4 -20 -8z"/>
<path d="M1033 325 c0 -8 4 -12 9 -9 5 3 6 10 3 15 -9 13 -12 11 -12 -6z"/>
<path d="M2027 319 c7 -7 15 -10 18 -7 3 3 -2 9 -12 12 -14 6 -15 5 -6 -5z"/>
<path d="M1790 301 c0 -6 4 -13 10 -16 6 -3 7 1 4 9 -7 18 -14 21 -14 7z"/>
<path d="M1590 277 c0 -2 6 -10 14 -16 11 -9 16 -9 22 1 4 7 4 10 -1 6 -4 -4
-14 -3 -22 3 -7 6 -13 9 -13 6z"/>
<path d="M1176 262 c-3 -5 1 -9 9 -9 8 0 12 4 9 9 -3 4 -7 8 -9 8 -2 0 -6 -4
-9 -8z"/>
<path d="M1235 260 c3 -5 8 -10 11 -10 2 0 4 5 4 10 0 6 -5 10 -11 10 -5 0 -7
-4 -4 -10z"/>
<path d="M1430 259 c0 -5 5 -7 10 -4 6 3 10 8 10 11 0 2 -4 4 -10 4 -5 0 -10
-5 -10 -11z"/>
<path d="M1810 246 c0 -2 7 -7 16 -10 8 -3 12 -2 9 4 -6 10 -25 14 -25 6z"/>
<path d="M1456 221 c-3 -5 2 -15 12 -22 15 -12 16 -12 5 2 -7 9 -10 19 -6 22
3 4 4 7 0 7 -3 0 -8 -4 -11 -9z"/>
<path d="M1636 213 c-6 -14 -5 -15 5 -6 7 7 10 15 7 18 -3 3 -9 -2 -12 -12z"/>
<path d="M1530 206 c0 -2 7 -7 16 -10 8 -3 12 -2 9 4 -6 10 -25 14 -25 6z"/>
</g>
</svg>
