<svg width="68" height="75" viewBox="0 0 68 75" fill="none" xmlns="http://www.w3.org/2000/svg">
<g filter="url(#filter0_d_4_15)">
<path d="M34.3125 8.25C37.6458 8.25 40.0625 9.33333 41.5625 11.5C43.0625 13.625 43.8125 16.2917 43.8125 19.5C43.8125 20.7083 43.6042 22.0833 43.1875 23.625H18.8125C20.1042 18.4167 22.1875 14.5625 25.0625 12.0625C27.9792 9.52083 31.0625 8.25 34.3125 8.25ZM18.1875 27.875H52.25C52.9167 25.7917 53.25 23.6458 53.25 21.4375C53.25 16.5625 51.8542 12.4792 49.0625 9.1875C46.3125 5.85417 41.9167 4.1875 35.875 4.1875C28 4.1875 21.375 7.04167 16 12.75C10.625 18.4583 7.9375 25.7083 7.9375 34.5C7.9375 43.875 10.5 50.9375 15.625 55.6875C20.75 60.4375 26.7708 62.8125 33.6875 62.8125C38.8125 62.8125 43.5625 61.4375 47.9375 58.6875C52.3542 55.8958 55.5833 51.7083 57.625 46.125C57.0417 45.4583 56.2292 45 55.1875 44.75C55.0208 45 54.5208 45.6875 53.6875 46.8125C52.8958 47.8958 52.3125 48.6875 51.9375 49.1875C51.5625 49.6458 50.875 50.3333 49.875 51.25C48.9167 52.125 47.9792 52.7708 47.0625 53.1875C46.1875 53.6042 45.0625 54.0208 43.6875 54.4375C42.3125 54.8125 40.8125 55 39.1875 55C32.7708 55 27.6667 53.1042 23.875 49.3125C20.0833 45.4792 18.1042 40.3333 17.9375 33.875C17.9375 32.4167 18.0208 30.4167 18.1875 27.875ZM54.1875 41.8125C56.8125 42.3958 58.9375 43.7083 60.5625 45.75C58.1875 52.25 54.5208 57.1458 49.5625 60.4375C44.6042 63.7292 39.3125 65.375 33.6875 65.375C26.0208 65.375 19.375 62.7917 13.75 57.625C8.16667 52.4583 5.375 44.75 5.375 34.5C5.375 25.2083 8.22917 17.4167 13.9375 11.125C19.6875 4.79167 27.8125 1.625 38.3125 1.625C54.1875 1.625 62.125 8.22917 62.125 21.4375C62.125 24.0208 61.5208 27.0208 60.3125 30.4375H26.75V34.5C26.9583 39.5417 28.3333 43.6458 30.875 46.8125C33.4167 49.9375 36.9167 51.7708 41.375 52.3125C44 52.0625 46.1667 51.1667 47.875 49.625C49.5833 48.0833 51.6875 45.4792 54.1875 41.8125ZM41.25 19.5C41.25 14.9167 39.7083 12.1458 36.625 11.1875C32.9583 12.3125 30.2292 15.6042 28.4375 21.0625H41.125C41.125 20.8958 41.1458 20.6458 41.1875 20.3125C41.2292 19.9792 41.25 19.7083 41.25 19.5Z" fill="#F85606"/>
<path d="M43.1875 24.125H43.5703L43.6702 23.7555C44.0949 22.184 44.3125 20.7639 44.3125 19.5C44.3125 16.2136 43.5436 13.4403 41.9721 11.2133C40.354 8.87751 37.7601 7.75 34.3125 7.75C30.9196 7.75 27.7235 9.08042 24.734 11.6855C21.7558 14.2755 19.6338 18.2362 18.3272 23.5046L18.1734 24.125H18.8125H43.1875ZM18.1875 27.375H17.7192L17.6886 27.8423C17.5216 30.3881 17.4375 32.4006 17.4375 33.875H17.4373L17.4377 33.8879C17.6069 40.4467 19.6212 45.723 23.5195 49.6641L23.5214 49.6661C27.4249 53.5695 32.6662 55.5 39.1875 55.5C40.8508 55.5 42.3957 55.3081 43.8191 54.9199L43.8191 54.9201L43.8325 54.916C45.2191 54.4958 46.3685 54.0714 47.2734 53.6409C48.2479 53.1973 49.2271 52.5187 50.2121 51.6192L50.2129 51.6186C51.2139 50.701 51.9248 49.9926 52.3245 49.5041L52.3312 49.4959L52.3375 49.4875C52.7143 48.9851 53.2988 48.1918 54.0901 47.109C54.7017 46.2833 55.1391 45.6862 55.3968 45.3242C56.0818 45.531 56.6266 45.8408 57.0476 46.2439C55.0338 51.5923 51.9048 55.5882 47.6706 58.2647C43.3749 60.9647 38.7172 62.3125 33.6875 62.3125C26.8983 62.3125 20.9985 59.9861 15.9649 55.3208C10.9734 50.6946 8.4375 43.7854 8.4375 34.5C8.4375 25.819 11.0872 18.6968 16.364 13.0928C21.6441 7.48527 28.1371 4.6875 35.875 4.6875C41.8297 4.6875 46.0554 6.32817 48.6768 9.50569L48.6768 9.50572L48.6812 9.5109C51.3863 12.7005 52.75 16.6646 52.75 21.4375C52.75 23.4719 52.4605 25.4505 51.8817 27.375H18.1875ZM54.296 41.3244L53.9652 41.2509L53.7744 41.5308C51.2802 45.189 49.2029 47.7531 47.54 49.2538C45.9342 50.7029 43.8911 51.5612 41.3814 51.8095C37.062 51.2735 33.7039 49.4977 31.2638 46.4982C28.8062 43.4355 27.4564 39.4454 27.25 34.4897V30.9375H60.3125H60.666L60.7839 30.6042C62.0041 27.1539 62.625 24.0954 62.625 21.4375C62.625 14.7296 60.6051 9.61619 56.4917 6.19377C52.3959 2.78599 46.307 1.125 38.3125 1.125C27.7061 1.125 19.4331 4.32805 13.5673 10.7889L13.5672 10.789C7.76729 17.1816 4.875 25.0967 4.875 34.5C4.875 44.8389 7.69288 52.7011 13.4104 57.992L13.4118 57.9932C19.1294 63.245 25.8961 65.875 33.6875 65.875C39.4167 65.875 44.8037 64.1968 49.839 60.8541C54.9001 57.4942 58.6267 52.5049 61.0321 45.9216L61.1284 45.6581L60.9537 45.4386C59.2551 43.3045 57.029 41.9317 54.296 41.3244ZM29.1362 20.5625C30.8736 15.6551 33.392 12.7665 36.6233 11.7125C37.9706 12.1663 38.9743 13.0007 39.6568 14.2275C40.3719 15.5127 40.75 17.2579 40.75 19.5C40.75 19.679 40.7318 19.9269 40.6914 20.2505C40.6775 20.3614 40.6656 20.4655 40.6558 20.5625H29.1362Z" stroke="#FF9900"/>
</g>
<defs>
<filter id="filter0_d_4_15" x="0.375" y="0.625" width="66.75" height="73.75" filterUnits="userSpaceOnUse" color-interpolation-filters="sRGB">
<feFlood flood-opacity="0" result="BackgroundImageFix"/>
<feColorMatrix in="SourceAlpha" type="matrix" values="0 0 0 0 0 0 0 0 0 0 0 0 0 0 0 0 0 0 127 0" result="hardAlpha"/>
<feOffset dy="4"/>
<feGaussianBlur stdDeviation="2"/>
<feComposite in2="hardAlpha" operator="out"/>
<feColorMatrix type="matrix" values="0 0 0 0 0 0 0 0 0 0 0 0 0 0 0 0 0 0 0.25 0"/>
<feBlend mode="multiply" in2="BackgroundImageFix" result="effect1_dropShadow_4_15"/>
<feBlend mode="normal" in="SourceGraphic" in2="effect1_dropShadow_4_15" result="shape"/>
</filter>
</defs>
</svg>
